# xmcd
#
# Track frame offsets:
#	150
#	9447
#	21623
#	34791
#	47081
#	59894
#	75939
#	84553
#	94968
#	104691
#	116639
#	125016
#	138373
#	147073
#	157604
#	168190
#	182673
#	192687
#	206336
#	216392
#	227380
#	237406
#
# Disc length: 3292 seconds
# Revision: 2
# Processed by: cddbd v1.5.2PL0 Copyright (c) Steve Scherf et al.
# Submitted via: dBpowerAMP V12.0
#
DISCID=330cda16
DTITLE=Waylon Jennings - Waylon - Singer of Sad Songs
DYEAR=2009
DGENRE=Country
TTITLE0=Brown Eyed Handsome Man
TTITLE1=Just Across the Way
TTITLE2=Don't Play the Game
TTITLE3=Shutting Out the Light
TTITLE4=I May Never Pass This Way Again
TTITLE5=The Thirty Third of August
TTITLE6=Yellow Haired Woman
TTITLE7=Where Love Has Died
TTITLE8=All of Me Belongs To You
TTITLE9=Yes, Virginia [Remake]
TTITLE10=This Time Tomorrow (I'll Be Gone)
TTITLE11=Singer of Sad Songs
TTITLE12=Sick and Tired
TTITLE13=Time Between Bottles of Wine
TTITLE14=Must You Throw Dirt In My Face
TTITLE15=No Regrets
TTITLE16=Ragged But Right
TTITLE17=Honky Tonk Woman
TTITLE18=She Comes Running
TTITLE19=If I Were a Carpenter
TTITLE20=Donna On My Mind
TTITLE21=Rock, Salt and Nails
EXTD=
EXTT0=
EXTT1=
EXTT2=
EXTT3=
EXTT4=
EXTT5=
EXTT6=
EXTT7=
EXTT8=
EXTT9=
EXTT10=
EXTT11=
EXTT12=
EXTT13=
EXTT14=
EXTT15=
EXTT16=
EXTT17=
EXTT18=
EXTT19=
EXTT20=
EXTT21=
PLAYORDER=
